<?xml version="1.0" encoding="iso-8859-1"?>
<!-- Uploaded to: SVG Repo, www.svgrepo.com, Generator: SVG Repo Mixer Tools -->
<svg height="800px" width="800px" version="1.1" id="Layer_1" xmlns="http://www.w3.org/2000/svg" xmlns:xlink="http://www.w3.org/1999/xlink" 
	 viewBox="0 0 512.001 512.001" xml:space="preserve">
<path style="fill:#FFD960;" d="M297.974,222.608c-1.202-3.7-4.399-6.397-8.249-6.956l-90.739-13.186l-40.584-82.224
	c-1.721-3.491-5.273-5.698-9.164-5.698s-7.443,2.208-9.166,5.698l-40.581,82.224L8.75,215.652c-3.848,0.559-7.047,3.256-8.249,6.956
	c-1.202,3.697-0.198,7.759,2.586,10.476l65.663,64.003l-15.503,90.375c-0.659,3.833,0.917,7.71,4.065,9.996
	c3.148,2.287,7.322,2.589,10.763,0.778l81.163-42.669l81.159,42.669c1.498,0.785,3.13,1.173,4.758,1.173
	c2.117,0,4.228-0.657,6.007-1.951c3.147-2.287,4.723-6.162,4.067-9.996l-4.901-28.567l-4.539-26.461l-6.064-35.348l65.661-64.003
	C298.175,230.367,299.178,226.305,297.974,222.608z"/>
<g style="opacity:0.1;">
	<path style="fill:#231F20;" d="M71.554,381.971l14.988-87.376c0-0.001,0-0.002,0-0.003c0.426-2.485-0.493-3.904-1.021-4.492
		l-0.335-0.326l-0.002-0.002l0,0l-63.792-62.178c-2.782-2.717-3.786-6.779-2.586-10.476c0.382-1.179,0.985-2.238,1.729-3.178
		l-11.787,1.713c-3.848,0.559-7.047,3.256-8.249,6.956c-1.202,3.697-0.198,7.759,2.586,10.476l65.663,64.003l-15.503,90.375
		c-0.659,3.833,0.917,7.71,4.065,9.996c3.148,2.287,7.322,2.589,10.763,0.778l9.692-5.095c-0.75-0.305-1.476-0.685-2.15-1.173
		C72.471,389.679,70.895,385.804,71.554,381.971z"/>
</g>
<g>
	<path style="fill:#FF9737;" d="M208.547,252.475c-0.477-1.475-1.753-2.55-3.291-2.772l-36.182-5.258l-16.181-32.788
		c-0.686-1.393-2.104-2.273-3.654-2.273c-1.551,0-2.968,0.881-3.654,2.273l-16.182,32.788l-36.183,5.258
		c-1.533,0.222-2.81,1.298-3.287,2.772c-0.482,1.475-0.079,3.094,1.03,4.178l26.184,25.521l-6.183,36.039
		c-0.261,1.529,0.366,3.072,1.622,3.985c1.253,0.913,2.917,1.032,4.29,0.31l32.365-17.014l32.363,17.014
		c0.596,0.314,1.248,0.469,1.899,0.469c0.844,0,1.685-0.264,2.396-0.778c1.254-0.914,1.882-2.457,1.621-3.985l-6.181-36.039
		l26.183-25.521C208.628,255.569,209.027,253.95,208.547,252.475z"/>
	<path style="fill:#FF9737;" d="M399.291,122.781H201.394c-4.551,0-8.238-3.688-8.238-8.238c0-4.549,3.687-8.238,8.238-8.238
		h197.897c4.551,0,8.238,3.688,8.238,8.238S403.842,122.781,399.291,122.781z"/>
	<path style="fill:#FF9737;" d="M407.116,405.696H284.235c-4.549,0-8.238-3.688-8.238-8.238c0-4.549,3.688-8.238,8.238-8.238
		h122.881c4.549,0,8.238,3.688,8.238,8.238C415.354,402.008,411.665,405.696,407.116,405.696z"/>
	<path style="fill:#FF9737;" d="M365.235,334.968h-90.203c-4.551,0-8.238-3.688-8.238-8.238c0-4.549,3.687-8.238,8.238-8.238h90.203
		c4.549,0,8.238,3.688,8.238,8.238C373.473,331.279,369.783,334.968,365.235,334.968z"/>
	<path style="fill:#FF9737;" d="M409.416,334.968h-4.602c-4.549,0-8.238-3.688-8.238-8.238c0-4.549,3.688-8.238,8.238-8.238h4.602
		c4.549,0,8.238,3.688,8.238,8.238C417.654,331.279,413.965,334.968,409.416,334.968z"/>
	<path style="fill:#FF9737;" d="M502.383,193.509h-4.601c-4.551,0-8.238-3.688-8.238-8.238s3.687-8.238,8.238-8.238h4.601
		c4.551,0,8.238,3.688,8.238,8.238S506.932,193.509,502.383,193.509z"/>
	<path style="fill:#FF9737;" d="M503.763,264.239H338.542c-4.551,0-8.238-3.688-8.238-8.238c0-4.549,3.687-8.238,8.238-8.238
		h165.222c4.549,0,8.238,3.688,8.238,8.238C512.001,260.55,508.312,264.239,503.763,264.239z"/>
	<path style="fill:#FF9737;" d="M460.041,193.509H320.134c-4.549,0-8.238-3.688-8.238-8.238s3.688-8.238,8.238-8.238h139.907
		c4.551,0,8.238,3.688,8.238,8.238S464.592,193.509,460.041,193.509z"/>
</g>
</svg>